<svg clip-rule="evenodd" fill-rule="evenodd" stroke-linejoin="round" stroke-miterlimit="2" viewBox="0 0 24 24" xmlns="http://www.w3.org/2000/svg"><path d="m0 0h24v24h-24z" fill="#080a0c"/><g fill="#5e76ed" fill-rule="nonzero" transform="translate(-11.777852 -.028095)"><path d="m19.914 16.284-6.272-2.954v-1.75l6.272-2.954v1.61l-4.06 1.876c-.187.084-.371.156-.553.217s-.324.1-.427.119c.103.019.247.056.434.112s.369.126.546.21l4.06 1.876z"/><path d="m21.538 18.608 4.9-13.16h1.82l-4.9 13.16z" transform="translate(-1)"/><path d="m27.642 16.284v-1.61l4.06-1.876c.187-.084.371-.154.553-.21s.324-.098.427-.126c-.103-.019-.247-.056-.434-.112s-.369-.121-.546-.196l-4.06-1.89v-1.638l6.272 2.954v1.75z"/></g></svg>